<mxfile host="app.diagrams.net" agent="Mozilla/5.0 (Windows NT 10.0; Win64; x64) AppleWebKit/537.36 (KHTML, like Gecko) Chrome/131.0.0.0 Safari/537.36" version="24.8.6">
  <diagram id="C5RBs43oDa-KdzZeNtuy" name="Page-1">
    <mxGraphModel dx="1000" dy="497" grid="1" gridSize="10" guides="1" tooltips="1" connect="1" arrows="1" fold="1" page="1" pageScale="1" pageWidth="827" pageHeight="1169" math="0" shadow="0">
      <root>
        <mxCell id="WIyWlLk6GJQsqaUBKTNV-0" />
        <mxCell id="WIyWlLk6GJQsqaUBKTNV-1" parent="WIyWlLk6GJQsqaUBKTNV-0" />
        <mxCell id="N2TpOjovdCxTWS9idGSR-2" value="" style="edgeStyle=orthogonalEdgeStyle;rounded=0;orthogonalLoop=1;jettySize=auto;html=1;" edge="1" parent="WIyWlLk6GJQsqaUBKTNV-1" source="N2TpOjovdCxTWS9idGSR-0" target="N2TpOjovdCxTWS9idGSR-1">
          <mxGeometry relative="1" as="geometry" />
        </mxCell>
        <mxCell id="N2TpOjovdCxTWS9idGSR-0" value="Start" style="ellipse;whiteSpace=wrap;html=1;" vertex="1" parent="WIyWlLk6GJQsqaUBKTNV-1">
          <mxGeometry x="354" y="20" width="120" height="80" as="geometry" />
        </mxCell>
        <mxCell id="N2TpOjovdCxTWS9idGSR-4" value="" style="edgeStyle=orthogonalEdgeStyle;rounded=0;orthogonalLoop=1;jettySize=auto;html=1;" edge="1" parent="WIyWlLk6GJQsqaUBKTNV-1" source="N2TpOjovdCxTWS9idGSR-1" target="N2TpOjovdCxTWS9idGSR-3">
          <mxGeometry relative="1" as="geometry" />
        </mxCell>
        <mxCell id="N2TpOjovdCxTWS9idGSR-5" value="EI" style="edgeLabel;html=1;align=center;verticalAlign=middle;resizable=0;points=[];" vertex="1" connectable="0" parent="N2TpOjovdCxTWS9idGSR-4">
          <mxGeometry x="-0.203" y="3" relative="1" as="geometry">
            <mxPoint as="offset" />
          </mxGeometry>
        </mxCell>
        <mxCell id="N2TpOjovdCxTWS9idGSR-8" value="" style="edgeStyle=orthogonalEdgeStyle;rounded=0;orthogonalLoop=1;jettySize=auto;html=1;" edge="1" parent="WIyWlLk6GJQsqaUBKTNV-1" source="N2TpOjovdCxTWS9idGSR-1" target="N2TpOjovdCxTWS9idGSR-7">
          <mxGeometry relative="1" as="geometry" />
        </mxCell>
        <mxCell id="N2TpOjovdCxTWS9idGSR-9" value="JAH" style="edgeLabel;html=1;align=center;verticalAlign=middle;resizable=0;points=[];" vertex="1" connectable="0" parent="N2TpOjovdCxTWS9idGSR-8">
          <mxGeometry x="-0.025" y="3" relative="1" as="geometry">
            <mxPoint as="offset" />
          </mxGeometry>
        </mxCell>
        <mxCell id="N2TpOjovdCxTWS9idGSR-1" value="Kas kasutaja on sisestanud konverteeritava summa?" style="rhombus;whiteSpace=wrap;html=1;" vertex="1" parent="WIyWlLk6GJQsqaUBKTNV-1">
          <mxGeometry x="299" y="147" width="230" height="80" as="geometry" />
        </mxCell>
        <mxCell id="N2TpOjovdCxTWS9idGSR-6" style="edgeStyle=orthogonalEdgeStyle;rounded=0;orthogonalLoop=1;jettySize=auto;html=1;exitX=0.5;exitY=0;exitDx=0;exitDy=0;entryX=1;entryY=0.5;entryDx=0;entryDy=0;" edge="1" parent="WIyWlLk6GJQsqaUBKTNV-1" source="N2TpOjovdCxTWS9idGSR-3" target="N2TpOjovdCxTWS9idGSR-0">
          <mxGeometry relative="1" as="geometry" />
        </mxCell>
        <mxCell id="N2TpOjovdCxTWS9idGSR-3" value="Ütle kasutajale, et ta sisestaks arv väärtuse mida konventeerida valuutaks" style="whiteSpace=wrap;html=1;" vertex="1" parent="WIyWlLk6GJQsqaUBKTNV-1">
          <mxGeometry x="600" y="152" width="135" height="70" as="geometry" />
        </mxCell>
        <mxCell id="N2TpOjovdCxTWS9idGSR-11" value="" style="edgeStyle=orthogonalEdgeStyle;rounded=0;orthogonalLoop=1;jettySize=auto;html=1;" edge="1" parent="WIyWlLk6GJQsqaUBKTNV-1" source="N2TpOjovdCxTWS9idGSR-7" target="N2TpOjovdCxTWS9idGSR-10">
          <mxGeometry relative="1" as="geometry" />
        </mxCell>
        <mxCell id="N2TpOjovdCxTWS9idGSR-16" value="EI" style="edgeLabel;html=1;align=center;verticalAlign=middle;resizable=0;points=[];" vertex="1" connectable="0" parent="N2TpOjovdCxTWS9idGSR-11">
          <mxGeometry x="-0.1513" relative="1" as="geometry">
            <mxPoint as="offset" />
          </mxGeometry>
        </mxCell>
        <mxCell id="N2TpOjovdCxTWS9idGSR-15" value="" style="edgeStyle=orthogonalEdgeStyle;rounded=0;orthogonalLoop=1;jettySize=auto;html=1;" edge="1" parent="WIyWlLk6GJQsqaUBKTNV-1" source="N2TpOjovdCxTWS9idGSR-7" target="N2TpOjovdCxTWS9idGSR-14">
          <mxGeometry relative="1" as="geometry" />
        </mxCell>
        <mxCell id="N2TpOjovdCxTWS9idGSR-17" value="JAH" style="edgeLabel;html=1;align=center;verticalAlign=middle;resizable=0;points=[];" vertex="1" connectable="0" parent="N2TpOjovdCxTWS9idGSR-15">
          <mxGeometry x="-0.0545" relative="1" as="geometry">
            <mxPoint as="offset" />
          </mxGeometry>
        </mxCell>
        <mxCell id="N2TpOjovdCxTWS9idGSR-7" value="Kas kasutaja on valinud valuuta millese bitcoin konvertida" style="rhombus;whiteSpace=wrap;html=1;" vertex="1" parent="WIyWlLk6GJQsqaUBKTNV-1">
          <mxGeometry x="320" y="278" width="190" height="120" as="geometry" />
        </mxCell>
        <mxCell id="N2TpOjovdCxTWS9idGSR-13" style="edgeStyle=orthogonalEdgeStyle;rounded=0;orthogonalLoop=1;jettySize=auto;html=1;exitX=0.5;exitY=0;exitDx=0;exitDy=0;entryX=1;entryY=0;entryDx=0;entryDy=0;" edge="1" parent="WIyWlLk6GJQsqaUBKTNV-1" source="N2TpOjovdCxTWS9idGSR-10" target="N2TpOjovdCxTWS9idGSR-7">
          <mxGeometry relative="1" as="geometry" />
        </mxCell>
        <mxCell id="N2TpOjovdCxTWS9idGSR-10" value="Ütle kasutajale, et valiks siht valuuta" style="whiteSpace=wrap;html=1;" vertex="1" parent="WIyWlLk6GJQsqaUBKTNV-1">
          <mxGeometry x="625" y="308" width="120" height="60" as="geometry" />
        </mxCell>
        <mxCell id="N2TpOjovdCxTWS9idGSR-19" value="" style="edgeStyle=orthogonalEdgeStyle;rounded=0;orthogonalLoop=1;jettySize=auto;html=1;" edge="1" parent="WIyWlLk6GJQsqaUBKTNV-1" source="N2TpOjovdCxTWS9idGSR-14" target="N2TpOjovdCxTWS9idGSR-18">
          <mxGeometry relative="1" as="geometry" />
        </mxCell>
        <mxCell id="N2TpOjovdCxTWS9idGSR-14" value="Esitab bitcoini API&#39;le päringu bitcoini hetkeväärtuse saamiseks" style="whiteSpace=wrap;html=1;" vertex="1" parent="WIyWlLk6GJQsqaUBKTNV-1">
          <mxGeometry x="329" y="443" width="170" height="90" as="geometry" />
        </mxCell>
        <mxCell id="N2TpOjovdCxTWS9idGSR-21" value="" style="edgeStyle=orthogonalEdgeStyle;rounded=0;orthogonalLoop=1;jettySize=auto;html=1;" edge="1" parent="WIyWlLk6GJQsqaUBKTNV-1" source="N2TpOjovdCxTWS9idGSR-18" target="N2TpOjovdCxTWS9idGSR-20">
          <mxGeometry relative="1" as="geometry" />
        </mxCell>
        <mxCell id="N2TpOjovdCxTWS9idGSR-18" value="Arvutab kasutaja sisendi põhjal tulemuse" style="whiteSpace=wrap;html=1;" vertex="1" parent="WIyWlLk6GJQsqaUBKTNV-1">
          <mxGeometry x="354" y="575" width="120" height="60" as="geometry" />
        </mxCell>
        <mxCell id="N2TpOjovdCxTWS9idGSR-20" value="Lõpp" style="ellipse;whiteSpace=wrap;html=1;" vertex="1" parent="WIyWlLk6GJQsqaUBKTNV-1">
          <mxGeometry x="339" y="689" width="150" height="50" as="geometry" />
        </mxCell>
      </root>
    </mxGraphModel>
  </diagram>
</mxfile>
